<?xml version="1.0" encoding="utf-8"?>
<!-- Generator: Adobe Illustrator 16.2.1, SVG Export Plug-In . SVG Version: 6.00 Build 0)  -->
<!DOCTYPE svg PUBLIC "-//W3C//DTD SVG 1.1//EN" "http://www.w3.org/Graphics/SVG/1.1/DTD/svg11.dtd">
<svg version="1.1" id="Layer_1" xmlns="http://www.w3.org/2000/svg" xmlns:xlink="http://www.w3.org/1999/xlink" x="0px" y="0px"
	 width="340px" height="340px" viewBox="0 0 340 340" enable-background="new 0 0 340 340" xml:space="preserve">
<circle fill="#F5F5F5" cx="170" cy="170" r="170"/>
<path fill="#5EC7F2" d="M170,290c-66.168,0-120-53.832-120-120S103.832,50,170,50s120,53.832,120,120S236.168,290,170,290z
	 M170,53.935c-63.999,0-116.065,52.067-116.065,116.065c0,63.998,52.066,116.064,116.065,116.064
	c63.998,0,116.064-52.066,116.064-116.064C286.064,106.001,233.998,53.935,170,53.935z"/>
<path fill="#5EC7F2" d="M169.834,236.867c22.297,0,42.621-10.922,55.166-28.254c-4.568-2.582-9.318-4.529-13.262-5.859
	c-11.924-4.141-21.129-7.967-22.354-12.551c-1.152-4.303,1.824-6.883,6.02-12.738c5.803-7.843,9.721-18.074,10.746-28.734
	c2.223-23.049-11.131-45.598-35.65-45.598c-19.828,0-35.893,15.623-35.893,40.139c0,12.145,3.945,24.179,10.338,33.248
	c0.016,0.01,0.016,0.033,0.025,0.051c4.518,6.514,7.847,9.125,6.633,13.633c-1.229,4.619-10.566,8.441-22.594,12.652
	c-0.123,0.041-0.23,0.072-0.334,0.123c-4.123,1.402-9.02,3.451-13.676,6.197C131.002,230.857,155.532,236.867,169.834,236.867z"/>
</svg>
