<svg xmlns="http://www.w3.org/2000/svg" viewBox="0 0 1780.6 558.1"><style>.st0{fill:#fff}</style><g id="Lag_3"><path class="st0" d="M355.2 261.5v119c0 97.9-79.7 177.6-177.6 177.6S0 478.4 0 380.5v-119c0-6 2.3-12.1 6.8-16.2l66.5-66.1-66.5-66.1C2.3 108.9 0 102.9 0 96.9V24.3C0 11.5 10.2 1.2 23.1 1.2c12.8 0 23.1 10.2 23.1 23.1v62.4l59.7 59.7 9.8 9.8V23.8C115.7 11 125.9.7 138.8.7c12.8 0 23.1 10.2 23.1 23.1V407c0 12.8-10.2 23.1-23.1 23.1-12.8 0-23.1-10.2-23.1-23.1V201.8l-9.8 9.8-59.7 59.7v109.2c0 72.6 59 131.5 131.5 131.5s131.5-59 131.5-131.5V271.3l-59.7-59.7-9.8-9.8V407c0 12.8-10.2 23.1-23.1 23.1-12.8 0-23.1-10.2-23.1-23.1V23.4c0-12.8 10.2-23.1 23.1-23.1 12.8 0 23.1 10.2 23.1 23.1v132.3l9.8-9.8 59.7-59.7V23.1c0-12.8 10.2-23.1 23.1-23.1 12.8 0 23.1 10.2 23.1 23.1v72.6c0 6-2.3 12.1-6.8 16.2L282.1 178l66.5 66.1c4 5.3 6.6 11.3 6.6 17.4zM524.5 299.3V187.4h51v105.4c0 24.6 11.3 38.9 33.6 38.9 18.9 0 34.8-13.2 34.8-43.8V187.8h54v183.3h-53.7v-20c-12.1 14.7-29.9 23.8-50.6 23.8-43-.4-69.1-28.4-69.1-75.6zM725.5 187.4h49.9v20.4c11.7-15.1 29.9-24.2 50.6-24.2 43.5 0 69.2 28 69.2 75.2v111.9h-51V265.3c0-24.6-11.3-38.9-33.6-38.9-18.9 0-34.8 13.2-34.8 43.8v100.1h-50.3V187.4zM924.7 118.6H975v50.3h-50.3v-50.3zm0 68.8H975v183.3h-50.3V187.4zM998.8 279.2c0-65 47.6-95.2 89.2-95.2 23.8 0 42.7 9.8 54.8 23.4v-19.7h50.3v267.5h-50.4V352.5c-12.1 13.6-31.4 21.9-55.5 21.9-38.9.1-88.4-30.9-88.4-95.2zm145.1-.3c0-27.2-19.7-49.1-46.9-49.1-28 0-49.1 20.8-49.1 49.1s21.2 49.5 49.1 49.5c27.2 0 46.9-22.7 46.9-49.5zM1296.9 297.4l-24.6 29.1v44.2H1222V103.1h50.3v165.5l67.6-80.9h58.2l-66.9 79.4 70.3 104.3h-55.2l-49.4-74z"/><path class="st0" d="M1395.2 279.2c0-52.9 42.7-95.2 95.2-95.2 55.9 0 94.5 42.3 94.5 94.9v18.5h-141.3c6 20 22.3 33.3 48.7 33.3 20 0 37-11 45-28.7l40.1 23.8c-15.9 28.7-44.6 48.7-85.4 48.7-57.2 0-96.8-42.7-96.8-95.3zm50.6-22.6h88.8c-6.4-18.9-22.3-29.1-43.5-29.1-21.5.3-37.7 12.1-45.3 29.1zM1661.2 362.8l-72.9-175.3h52.9l45 113 42.3-113h52.1l-106.2 267.9h-50.3l37.1-92.6z"/></g></svg>
